<?xml version="1.0" encoding="UTF-8"?><svg id="Layer_1" xmlns="http://www.w3.org/2000/svg" viewBox="0 0 1787.98 815.98"><defs><style>.cls-1{fill:#010101;}.cls-1,.cls-2{fill-rule:evenodd;}.cls-2{fill:rgba(255,255,255,0);}</style></defs><path class="cls-2" d="M.08-504.89H1787.98V1283.01H.08V-504.89Z"/><path class="cls-1" d="M455.67,204.75h259.28l-19.91,61.31h-150.12l-8.16,25.12h150.12l-19.18,59.1h-150.12l-15.84,48.75h-109.15l63.09-194.28h0ZM157.4,417.5H495.77l-25.23,78.07h-196.34l-10.05,30.53h196.33l-23.75,73.14H240.39l-19.44,59.83H78.96l78.44-241.56h0ZM225.91,119.06h100.02l-6.96,21.43h-29.12l-17.27,53.19h-42.5l17.27-53.19h-28.4l6.96-21.43Zm250.66,0h103.52l-6.47,19.94h-60.98l-4.07,12.56h60.98l-4.55,14.03h-60.99l-3.61,11.07h60.98l-5.52,16.99h-103.51l24.23-74.6h0Zm-134.87,0h40.57l-9.11,28.07h29.55l9.12-28.07h40.56l-24.23,74.61h-40.57l9.12-28.07h-29.56l-9.11,28.07h-40.57l24.23-74.61h0ZM870.34,417.5h78.05l-5.44,16.95h-22.72l-13.48,42.06h-33.16l13.48-42.06h-22.17l5.43-16.95h0Zm-126.42,0h58.85c22.83,0,27.55,12.78,21.92,30.13-4.42,13.63-15.57,28.71-41.02,28.71h-58.85l19.1-58.83Zm-176.6,10.26l2.09,29.36h-25.32l23.24-29.36Zm-27.97-10.26h59.7l1.73,58.83h-30.81l-.23-7.92h-33.95l-5.82,7.92h-33.83l43.21-58.83Zm90.78,0h38.06l11.59,32.15,10.43-32.15h31.89l-19.11,58.83h-36.35l-12.11-33.62-10.92,33.62h-32.58l19.11-58.83Zm137.94,16.56h15.67c8.86,0,10.69,5.92,8.51,13.93-1.73,6.32-5.73,13.28-15.59,13.28h-17.41l8.83-27.21h0Zm297.85-16.56h80.78l-5.06,15.78h-47.57l-3.19,9.93h47.57l-3.55,11.09h-47.57l-2.81,8.76h47.57l-4.29,13.44h-80.78l18.9-59h0Zm-105.24,0h31.67l-7.12,22.21h23.06l7.12-22.21h31.65l-18.91,59.01h-31.65l7.12-22.21h-23.06l-7.12,22.21h-31.65l18.89-59.01Zm186.98-151.44h177.98l-13.78,42.42h-51.47l-29.4,90.56h-76.09l29.4-90.56h-50.4l13.76-42.42h0Zm-16.59,1.35c-3.82,11.77-9.09,26.46-12.92,38.22-24.84-4.01-61.16-6.54-92.3-3.73-6.48,.58-13.95,1.07-16.21,6.06-3.95,8.7,3.77,9.29,11.21,9.29h42.12c27.88,0,50.2,4.32,41.68,48.71-10.38,43.09-77.63,39.92-114.19,40.12-28.4,.16-63.88-1.8-93.09-7.27l10.55-32.47c31.11,3.71,68.81,6.03,100.22,3.36,11.56-.98,13.53-3.58,13.63-7.61,.11-4.38-.72-6.2-13.3-6.68-19.44-.75-56.16-.26-65.94-2.97-21.48-5.97-25.67-25.7-17.77-50.05,11.33-34.87,47.48-42.09,104.2-41.95,42.67,.09,83.03,3.44,102.11,6.98h0Zm-384.5-1.35h134.28l3.9,132.97h-74.83l-.53-18.08h-66.77l-13.77,18.08h-83.6l101.32-132.97h0Zm60.35,30.52l1.61,54.98h-43.5l41.89-54.98Zm902.19,206.92c-3.82,11.77-9.09,26.46-12.92,38.22-24.84-4.01-61.16-6.53-92.3-3.73-6.48,.58-15.18,.05-17.83,5.7-4.44,9.54,7.61,8.67,13.55,8.67h41.41c27.86,0,50.18,5.3,41.67,49.68-10.38,43.09-77.63,39.91-114.2,40.12-28.39,.16-63.86-1.81-93.06-7.27,3.39-10.46,7.15-22.02,10.55-32.48,31.11,3.72,68.81,6.04,100.22,3.37,11.58-.98,13.53-3.59,13.63-7.62,.11-4.37-.72-5.85-13.32-6.34-19.42-.74-56.14-.26-65.92-2.97-21.48-5.96-25.67-26.04-17.77-50.38,11.33-34.88,47.48-42.09,104.2-41.95,42.66,.1,83.02,3.44,102.09,6.98h0Zm-999.91-3.34h159.01c29.15,0,37.52,22.13,30.65,44.23-6,19.33-21.19,36.66-49.68,36.66h-20.59l51.94,55.38h-88.21l-36.39-48.45-15.73,48.45h-75.24l44.24-136.27Zm63.6,35.88h40.42c22.42,0,12.1,31.46-13.39,31.46h-37.25l10.22-31.46Zm383.97-41.77c89.98,0,107.07,28.57,92.94,72.51-16.74,52.05-32.63,74.63-133.46,74.63s-100.09-38-85.98-81.87c15.3-47.56,49.15-65.26,126.51-65.26h0Zm-8.8,44.96c25.64,0,28.84,13.29,22.24,33.73-7.83,24.21-13.68,34.71-42.41,34.71-30.15,0-26.31-17.67-19.71-38.08,7.14-22.13,17.83-30.36,39.88-30.36h0Zm-201.32-39.07h75.23l-44.24,136.26h-75.23l44.24-136.26Zm351,0h75.23l-27.88,85.89c-4.31,13.25-1.16,23,13.86,23,16.12,0,22.85-8.53,29.06-27.68l26.38-81.22h75.23c-10.45,32.18-20.91,64.35-31.34,96.53-9.71,29.89-37.12,47.58-109.01,47.58-67.82,0-92.94-16.64-82.93-47.46l31.4-96.65h0Zm-811.68,0h75.24l-27.89,85.89c-4.3,13.25-1.16,23,13.87,23,16.12,0,22.83-8.53,29.05-27.68l26.37-81.22h75.24l-31.34,96.53c-9.71,29.89-37.11,47.58-109.01,47.58-67.82,0-92.93-16.64-82.91-47.46l31.38-96.65h0Z"/></svg>