<?xml version="1.0" encoding="utf-8"?>
<!-- Generator: Adobe Illustrator 26.5.2, SVG Export Plug-In . SVG Version: 6.00 Build 0)  -->
<svg version="1.1" id="Layer_1" xmlns="http://www.w3.org/2000/svg" xmlns:xlink="http://www.w3.org/1999/xlink" x="0px" y="0px"
	 viewBox="0 0 1788 816" style="enable-background:new 0 0 1788 816;" xml:space="preserve">
<style type="text/css">
	.st0{fill:#FFFFFF;}
</style>
<g>
	<path class="st0" d="M712.8,400l15.1-19.8h73.2l0.6,19.8h82.1l-4.3-145.9H732.3L621.1,400H712.8z M798.5,287.6l1.8,60.3h-47.7
		L798.5,287.6z"/>
	<path class="st0" d="M457.6,484.8h37.1l6.4-8.7h37.2l0.3,8.7h33.8l-1.9-64.5H505L457.6,484.8z M535.7,431.5L535.7,431.5
		L535.7,431.5l2.3,32.2h-27.8L535.7,431.5L535.7,431.5z"/>
	<polygon class="st0" points="619.4,484.8 631.3,447.9 644.6,484.8 684.5,484.8 705.4,420.3 670.5,420.3 659,455.5 646.3,420.3 
		604.6,420.3 583.6,484.8 	"/>
	<polygon class="st0" points="344,400 463.7,400 481.1,346.5 645.8,346.5 666.8,281.7 502.1,281.7 511.1,254.1 675.8,254.1 
		697.6,186.9 413.2,186.9 	"/>
	<path class="st0" d="M999.8,407.7c40.1-0.2,113.9,3.3,125.3-44c9.3-48.7-15.1-53.4-45.7-53.4h-46.2c-8.2,0-16.6-0.6-12.3-10.2
		c2.5-5.5,10.7-6,17.8-6.6c34.2-3.1,74-0.3,101.2,4.1c4.2-12.9,10-29,14.2-41.9c-20.9-3.9-65.2-7.6-112-7.7
		c-62.2-0.2-101.9,7.8-114.3,46c-8.7,26.7-4.1,48.4,19.5,54.9c10.7,3,51,2.4,72.3,3.3c13.8,0.5,14.7,2.5,14.6,7.3
		c-0.1,4.4-2.3,7.3-15,8.3c-34.5,2.9-75.8,0.4-109.9-3.7l-11.6,35.6C929.7,405.8,968.7,407.9,999.8,407.7z"/>
	<polygon class="st0" points="1165.6,437.6 1171.2,420.3 1082.6,420.3 1082.6,420.3 1061.8,485 1150.4,485 1155.2,470.2 1103,470.2 
		1106.1,460.6 1158.2,460.6 1162.1,448.5 1109.9,448.5 1113.4,437.6 	"/>
	<polygon class="st0" points="1154,255.6 1154,255.6 1154,255.6 	"/>
	<polygon class="st0" points="1041.1,485 1061.9,420.3 1027.2,420.3 1019.4,444.6 994.1,444.6 1001.9,420.3 967.1,420.3 
		967.1,420.3 946.4,485 981.1,485 988.9,460.6 1014.2,460.6 1006.4,485 	"/>
	<polygon class="st0" points="908,485 922.8,438.8 947.7,438.8 953.7,420.3 868,420.3 868,420.3 862.1,438.8 886.4,438.8 871.6,485 
			"/>
	<path class="st0" d="M729.4,420.3L729.4,420.3l-21,64.5H773c27.9,0,40.1-16.5,45-31.5c6.2-19,1-33-24-33H729.4z M782.4,453.7
		c-1.9,6.9-6.3,14.6-17.1,14.6h-19.1l9.7-29.8h17.2C782.8,438.4,784.8,444.9,782.4,453.7z"/>
	<polygon class="st0" points="436.1,92.9 436.1,92.9 436.1,92.9 	"/>
	<path class="st0" d="M1182.2,504.5L1182.2,504.5c-84.8,0-122,19.4-138.8,71.6c-15.5,48.1-16.3,89.8,94.3,89.8s128-24.8,146.4-81.9
		C1299.7,535.8,1280.9,504.5,1182.2,504.5z M1197,590.8c-8.6,26.6-15,38.1-46.5,38.1c-33.1,0-28.9-19.4-21.6-41.8
		c7.8-24.3,19.6-33.3,43.7-33.3C1200.7,553.8,1204.2,568.4,1197,590.8z"/>
	<polygon class="st0" points="1367.5,254.1 1172.2,254.1 1157.1,300.7 1212.4,300.7 1180.2,400 1263.6,400 1295.9,300.7 
		1352.3,300.7 	"/>
	<path class="st0" d="M1672.7,552.4c34.2-3.1,74-0.3,101.2,4.1c4.2-12.9,10-29,14.2-41.9c-20.9-3.9-65.2-7.5-112-7.7
		c-62.2-0.2-101.9,7.8-114.3,46c-8.7,26.7-4.1,48.7,19.5,55.3c10.7,3,51,2.4,72.3,3.3c13.8,0.5,14.7,2.2,14.6,7
		c-0.1,4.4-2.2,7.3-15,8.4c-34.5,2.9-75.8,0.4-109.9-3.7c-3.7,11.5-7.9,24.2-11.6,35.6c32,6,70.9,8.1,102.1,8
		c40.1-0.2,113.9,3.3,125.3-44c9.3-48.7-15.1-54.5-45.7-54.5H1668c-6.5,0-19.7,1-14.9-9.5C1656,552.5,1665.5,553.1,1672.7,552.4z"/>
	<path class="st0" d="M1464.7,510.9l-28.9,89.1c-6.8,21-14.2,30.4-31.9,30.4c-16.5,0-19.9-10.7-15.2-25.2l30.6-94.2h-82.5v0
		l-34.4,106c-11,33.8,16.6,52.1,91,52.1c78.9,0,108.9-19.4,119.6-52.2c11.4-35.3,22.9-70.6,34.4-105.9H1464.7z"/>
	<path class="st0" d="M865.7,510.9H691.3l-48.5,149.5h82.5l17.3-53.1l39.9,53.1h96.8l-57-60.7h22.6c31.2,0,47.9-19,54.5-40.2
		C906.9,535.2,897.7,510.9,865.7,510.9z M790.7,584.8h-40.9l11.2-34.5h0h44.3C830,550.3,818.7,584.8,790.7,584.8z"/>
	<polygon class="st0" points="903.2,660.4 985.7,660.4 1034.3,510.9 951.7,510.9 	"/>
	<polygon class="st0" points="306.1,174.7 316.1,144 348.5,144 338.5,174.7 383,174.7 409.6,92.9 365.1,92.9 355.1,123.7 
		322.7,123.7 332.7,92.9 288.2,92.9 261.6,174.7 	"/>
	<polygon class="st0" points="523.1,174.7 529.2,156.1 462.3,156.1 466.2,143.9 533.1,143.9 538.1,128.6 471.2,128.6 475.7,114.8 
		542.6,114.8 549.7,92.9 436.1,92.9 409.6,174.7 	"/>
	<polygon class="st0" points="165.8,174.8 212.4,174.8 231.3,116.4 263.3,116.4 270.9,92.9 161.2,92.9 153.6,116.4 184.7,116.4 	"/>
	<path class="st0" d="M574.4,510.9L545.5,600c-6.8,21-14.2,30.4-31.9,30.4c-16.5,0-19.9-10.7-15.2-25.2l30.6-94.2h-82.5l0,0
		l-34.4,106C401,650.7,428.6,669,503,669c78.9,0,108.9-19.4,119.6-52.2l34.4-105.9H574.4z"/>
	<polygon class="st0" points="203.1,539.4 214.2,505.9 429.5,505.9 457.2,420.3 86,420.3 86,420.3 0,685.2 155.7,685.2 177.1,619.6 
		392.4,619.6 418.5,539.4 	"/>
</g>
</svg>
