<?xml version="1.0" encoding="utf-8"?>
<!-- Generator: Adobe Illustrator 26.5.2, SVG Export Plug-In . SVG Version: 6.00 Build 0)  -->
<svg version="1.1" id="Layer_1" xmlns="http://www.w3.org/2000/svg" xmlns:xlink="http://www.w3.org/1999/xlink" x="0px" y="0px"
	 viewBox="0 0 1788 816" style="enable-background:new 0 0 1788 816;" xml:space="preserve">
<style type="text/css">
	.st0{fill:#FFFFFF;}
</style>
<g>
	<path class="st0" d="M741,398.3l12.7-16.7h61.8l0.5,16.7h69.3l-3.6-123.2H757.5l-93.9,123.2H741z M813.4,303.4l1.5,50.9h-40.3
		L813.4,303.4z"/>
	<path class="st0" d="M525.6,469.9h31.3l5.4-7.3h31.4l0.3,7.3h28.5l-1.6-54.4h-55.3L525.6,469.9z M591.5,424.9L591.5,424.9
		L591.5,424.9l1.9,27.2H570L591.5,424.9L591.5,424.9z"/>
	<polygon class="st0" points="662.2,469.9 672.2,438.7 683.5,469.9 717.2,469.9 734.8,415.4 705.3,415.4 695.6,445.1 684.9,415.4 
		649.7,415.4 632,469.9 	"/>
	<polygon class="st0" points="429.7,398.3 530.8,398.3 545.5,353.1 684.5,353.1 702.2,298.4 563.2,298.4 570.8,275.1 709.8,275.1 
		728.2,218.4 488.1,218.4 	"/>
	<path class="st0" d="M983.3,404.8c33.9-0.2,96.2,2.8,105.8-37.1c7.9-41.1-12.7-45.1-38.6-45.1h-39c-6.9,0-14-0.5-10.4-8.6
		c2.1-4.6,9-5.1,15-5.6c28.9-2.6,62.5-0.3,85.4,3.5c3.5-10.9,8.4-24.5,12-35.4c-17.6-3.3-55-6.4-94.5-6.5
		c-52.5-0.2-86,6.6-96.5,38.8c-7.3,22.5-3.5,40.9,16.5,46.3c9,2.5,43.1,2,61,2.8c11.6,0.4,12.4,2.1,12.3,6.2
		c-0.1,3.7-1.9,6.2-12.7,7c-29.1,2.4-64,0.3-92.8-3.1l-9.8,30.1C924.1,403.2,957.1,405,983.3,404.8z"/>
	<polygon class="st0" points="1123.3,430 1128,415.4 1053.2,415.4 1053.2,415.4 1035.7,470 1110.5,470 1114.5,457.6 1070.4,457.6 
		1073.1,449.5 1117,449.5 1120.3,439.2 1076.3,439.2 1079.2,430 	"/>
	<path class="st0" d="M1113.5,276.4L1113.5,276.4L1113.5,276.4z"/>
	<polygon class="st0" points="1018.2,470 1035.7,415.4 1006.5,415.4 999.9,435.9 978.5,435.9 985.1,415.4 955.7,415.4 955.7,415.4 
		938.2,470 967.5,470 974.1,449.5 995.5,449.5 988.9,470 	"/>
	<polygon class="st0" points="905.8,470 918.3,431 939.3,431 944.4,415.4 872.1,415.4 872.1,415.4 867.1,431 887.6,431 875.1,470 	
		"/>
	<path class="st0" d="M755.1,415.4L755.1,415.4l-17.7,54.4h54.5c23.6,0,33.9-13.9,38-26.6c5.2-16,0.8-27.9-20.3-27.9H755.1z
		 M799.8,443.6c-1.6,5.8-5.3,12.3-14.4,12.3h-16.1l8.2-25.2h14.5C800.1,430.7,801.8,436.2,799.8,443.6z"/>
	<path class="st0" d="M507.5,139.1L507.5,139.1L507.5,139.1z"/>
	<path class="st0" d="M1137.3,486.5L1137.3,486.5c-71.6,0-103,16.4-117.2,60.4c-13.1,40.6-13.8,75.8,79.6,75.8
		s108.1-20.9,123.6-69.1C1236.5,512.9,1220.6,486.5,1137.3,486.5z M1149.8,559.4c-7.3,22.5-12.7,32.2-39.3,32.2
		c-27.9,0-24.4-16.4-18.2-35.3c6.6-20.5,16.5-28.1,36.9-28.1C1152.9,528.1,1155.9,540.5,1149.8,559.4z"/>
	<polygon class="st0" points="1293.7,275.1 1128.9,275.1 1116.1,314.5 1162.8,314.5 1135.6,398.3 1206,398.3 1233.3,314.5 
		1280.9,314.5 	"/>
	<path class="st0" d="M1551.4,526.9c28.9-2.6,62.5-0.3,85.4,3.5c3.5-10.9,8.4-24.5,12-35.4c-17.6-3.3-55-6.3-94.5-6.5
		c-52.5-0.2-86,6.6-96.5,38.8c-7.3,22.5-3.5,41.1,16.5,46.7c9,2.5,43.1,2,61,2.8c11.6,0.4,12.4,1.9,12.3,5.9
		c-0.1,3.7-1.9,6.2-12.7,7.1c-29.1,2.4-64,0.3-92.8-3.1c-3.1,9.7-6.7,20.4-9.8,30.1c27,5.1,59.9,6.8,86.2,6.8
		c33.9-0.2,96.2,2.8,105.8-37.1c7.9-41.1-12.7-46-38.6-46h-38.3c-5.5,0-16.6,0.8-12.6-8C1537.3,527,1545.3,527.5,1551.4,526.9z"/>
	<path class="st0" d="M1375.8,491.9l-24.4,75.2c-5.7,17.7-12,25.7-26.9,25.7c-13.9,0-16.8-9-12.8-21.3l25.8-79.5h-69.6l0,0l-29,89.5
		c-9.3,28.5,14,44,76.8,44c66.6,0,91.9-16.4,101-44.1c9.6-29.8,19.3-59.6,29-89.4L1375.8,491.9L1375.8,491.9z"/>
	<path class="st0" d="M870.1,491.9H722.9L682,618.1h69.6l14.6-44.8l33.7,44.8h81.7l-48.1-51.2h19.1c26.3,0,40.4-16,46-33.9
		C904.9,512.4,897.1,491.9,870.1,491.9z M806.8,554.3h-34.5l9.5-29.1l0,0h37.4C840,525.2,830.4,554.3,806.8,554.3z"/>
	<polygon class="st0" points="901.8,618.1 971.4,618.1 1012.4,491.9 942.7,491.9 	"/>
	<polygon class="st0" points="397.7,208.1 406.2,182.2 433.5,182.2 425.1,208.1 462.6,208.1 485.1,139.1 447.5,139.1 439.1,165.1 
		411.7,165.1 420.2,139.1 382.6,139.1 360.2,208.1 	"/>
	<polygon class="st0" points="580.9,208.1 586.1,192.4 529.6,192.4 532.9,182.1 589.3,182.1 593.6,169.2 537.1,169.2 540.9,157.5 
		597.4,157.5 603.4,139.1 507.5,139.1 485.1,208.1 	"/>
	<polygon class="st0" points="279.3,208.2 318.6,208.2 334.6,158.9 361.6,158.9 368,139.1 275.4,139.1 269,158.9 295.2,158.9 	"/>
	<path class="st0" d="M624.2,491.9l-24.4,75.2c-5.7,17.7-12,25.7-26.9,25.7c-13.9,0-16.8-9-12.8-21.3l25.8-79.5h-69.6l0,0l-29,89.5
		c-9.4,28.4,13.9,43.9,76.7,43.9c66.6,0,91.9-16.4,101-44.1l29-89.4H624.2z"/>
	<polygon class="st0" points="310.8,516 320.1,487.7 501.9,487.7 525.3,415.4 211.9,415.4 211.9,415.4 139.3,639 270.8,639 
		288.8,583.7 470.6,583.7 492.6,516 	"/>
</g>
</svg>
